<mxfile host="app.diagrams.net" modified="2022-04-12T09:00:35.603Z" agent="5.0 (X11; Linux x86_64) AppleWebKit/537.36 (KHTML, like Gecko) Chrome/100.0.4896.75 Safari/537.36" etag="tFkz-AwZ0sUjniNQQc4Q" version="17.4.1" type="github">
  <diagram id="fuKiJAqC8t9YL4onfSZV" name="Page-1">
    <mxGraphModel dx="3922" dy="773" grid="1" gridSize="10" guides="1" tooltips="1" connect="1" arrows="1" fold="1" page="1" pageScale="1" pageWidth="1200" pageHeight="1600" math="0" shadow="0">
      <root>
        <mxCell id="0" />
        <mxCell id="1" parent="0" />
        <mxCell id="op_VEtC7BkcbnqvF3gc2-1" value="OwnableDelegateProxy A" style="rounded=1;whiteSpace=wrap;html=1;" parent="1" vertex="1">
          <mxGeometry x="-1590" y="299.86" width="160" height="60" as="geometry" />
        </mxCell>
        <mxCell id="op_VEtC7BkcbnqvF3gc2-3" value="has" style="edgeStyle=orthogonalEdgeStyle;rounded=0;orthogonalLoop=1;jettySize=auto;html=1;" parent="1" source="op_VEtC7BkcbnqvF3gc2-2" target="op_VEtC7BkcbnqvF3gc2-1" edge="1">
          <mxGeometry relative="1" as="geometry" />
        </mxCell>
        <mxCell id="Pw_K3rR0pV5wflo3pKvn-30" value="sign signature of order which executes" style="edgeStyle=orthogonalEdgeStyle;rounded=0;orthogonalLoop=1;jettySize=auto;html=1;entryX=0.5;entryY=1;entryDx=0;entryDy=0;" parent="1" source="op_VEtC7BkcbnqvF3gc2-2" target="Pw_K3rR0pV5wflo3pKvn-29" edge="1">
          <mxGeometry relative="1" as="geometry">
            <Array as="points">
              <mxPoint x="-1410" y="509.86" />
              <mxPoint x="-2340" y="509.86" />
            </Array>
          </mxGeometry>
        </mxCell>
        <mxCell id="op_VEtC7BkcbnqvF3gc2-2" value="User A" style="ellipse;whiteSpace=wrap;html=1;" parent="1" vertex="1">
          <mxGeometry x="-1470" y="419.86" width="120" height="80" as="geometry" />
        </mxCell>
        <mxCell id="Pw_K3rR0pV5wflo3pKvn-23" value="has" style="edgeStyle=orthogonalEdgeStyle;rounded=0;orthogonalLoop=1;jettySize=auto;html=1;" parent="1" source="op_VEtC7BkcbnqvF3gc2-4" target="Pw_K3rR0pV5wflo3pKvn-8" edge="1">
          <mxGeometry relative="1" as="geometry">
            <mxPoint as="offset" />
          </mxGeometry>
        </mxCell>
        <mxCell id="op_VEtC7BkcbnqvF3gc2-4" value="User B" style="ellipse;whiteSpace=wrap;html=1;" parent="1" vertex="1">
          <mxGeometry x="-1470" y="59.86" width="120" height="80" as="geometry" />
        </mxCell>
        <mxCell id="Pw_K3rR0pV5wflo3pKvn-7" style="edgeStyle=orthogonalEdgeStyle;rounded=0;orthogonalLoop=1;jettySize=auto;html=1;" parent="1" source="Pw_K3rR0pV5wflo3pKvn-1" target="Pw_K3rR0pV5wflo3pKvn-2" edge="1">
          <mxGeometry relative="1" as="geometry" />
        </mxCell>
        <mxCell id="Pw_K3rR0pV5wflo3pKvn-18" value="&lt;span style=&quot;color: rgb(0, 0, 0); font-family: helvetica; font-size: 11px; font-style: normal; font-weight: 400; letter-spacing: normal; text-align: center; text-indent: 0px; text-transform: none; word-spacing: 0px; background-color: rgb(255, 255, 255); display: inline; float: none;&quot;&gt;grantAuthentication (called once)&lt;/span&gt;" style="edgeStyle=orthogonalEdgeStyle;rounded=0;orthogonalLoop=1;jettySize=auto;html=1;entryX=0.5;entryY=0;entryDx=0;entryDy=0;" parent="1" source="Pw_K3rR0pV5wflo3pKvn-1" target="Pw_K3rR0pV5wflo3pKvn-9" edge="1">
          <mxGeometry relative="1" as="geometry">
            <Array as="points">
              <mxPoint x="-1930" y="159.86" />
              <mxPoint x="-2120" y="159.86" />
            </Array>
          </mxGeometry>
        </mxCell>
        <mxCell id="Pw_K3rR0pV5wflo3pKvn-1" value="Registry" style="rounded=1;whiteSpace=wrap;html=1;" parent="1" vertex="1">
          <mxGeometry x="-1990" y="179.86" width="120" height="60" as="geometry" />
        </mxCell>
        <mxCell id="Pw_K3rR0pV5wflo3pKvn-4" value="" style="edgeStyle=orthogonalEdgeStyle;rounded=0;orthogonalLoop=1;jettySize=auto;html=1;" parent="1" source="Pw_K3rR0pV5wflo3pKvn-2" target="Pw_K3rR0pV5wflo3pKvn-3" edge="1">
          <mxGeometry relative="1" as="geometry" />
        </mxCell>
        <mxCell id="Pw_K3rR0pV5wflo3pKvn-2" value="AuthenticatedProxy" style="rounded=1;whiteSpace=wrap;html=1;" parent="1" vertex="1">
          <mxGeometry x="-1990" y="289.86" width="120" height="60" as="geometry" />
        </mxCell>
        <mxCell id="Pw_K3rR0pV5wflo3pKvn-6" value="delegatecall" style="edgeStyle=orthogonalEdgeStyle;rounded=0;orthogonalLoop=1;jettySize=auto;html=1;entryX=0.5;entryY=0;entryDx=0;entryDy=0;exitX=0.5;exitY=0;exitDx=0;exitDy=0;" parent="1" source="Pw_K3rR0pV5wflo3pKvn-3" target="Pw_K3rR0pV5wflo3pKvn-19" edge="1">
          <mxGeometry relative="1" as="geometry">
            <mxPoint x="-1610" y="319.86" as="targetPoint" />
          </mxGeometry>
        </mxCell>
        <mxCell id="Pw_K3rR0pV5wflo3pKvn-24" value="call" style="edgeStyle=orthogonalEdgeStyle;rounded=0;orthogonalLoop=1;jettySize=auto;html=1;entryX=0.5;entryY=1;entryDx=0;entryDy=0;" parent="1" source="Pw_K3rR0pV5wflo3pKvn-3" target="Pw_K3rR0pV5wflo3pKvn-19" edge="1">
          <mxGeometry relative="1" as="geometry">
            <Array as="points">
              <mxPoint x="-1710" y="479.86" />
              <mxPoint x="-1510" y="479.86" />
            </Array>
          </mxGeometry>
        </mxCell>
        <mxCell id="Pw_K3rR0pV5wflo3pKvn-3" value="HowToCall" style="rhombus;whiteSpace=wrap;html=1;" parent="1" vertex="1">
          <mxGeometry x="-1750" y="249.86" width="80" height="80" as="geometry" />
        </mxCell>
        <mxCell id="Pw_K3rR0pV5wflo3pKvn-8" value="OwnableDelegateProxy B" style="rounded=1;whiteSpace=wrap;html=1;" parent="1" vertex="1">
          <mxGeometry x="-1590" y="189.86" width="160" height="60" as="geometry" />
        </mxCell>
        <mxCell id="Pw_K3rR0pV5wflo3pKvn-14" value="proxy" style="edgeStyle=orthogonalEdgeStyle;rounded=0;orthogonalLoop=1;jettySize=auto;html=1;entryX=0;entryY=0.5;entryDx=0;entryDy=0;" parent="1" source="Pw_K3rR0pV5wflo3pKvn-9" target="Pw_K3rR0pV5wflo3pKvn-1" edge="1">
          <mxGeometry relative="1" as="geometry" />
        </mxCell>
        <mxCell id="Pw_K3rR0pV5wflo3pKvn-9" value="Exchange" style="rounded=1;whiteSpace=wrap;html=1;" parent="1" vertex="1">
          <mxGeometry x="-2180" y="249.86" width="120" height="60" as="geometry" />
        </mxCell>
        <mxCell id="Pw_K3rR0pV5wflo3pKvn-26" style="edgeStyle=orthogonalEdgeStyle;rounded=0;orthogonalLoop=1;jettySize=auto;html=1;" parent="1" source="Pw_K3rR0pV5wflo3pKvn-19" target="Pw_K3rR0pV5wflo3pKvn-25" edge="1">
          <mxGeometry relative="1" as="geometry" />
        </mxCell>
        <mxCell id="Pw_K3rR0pV5wflo3pKvn-19" value="Proxy" style="ellipse;whiteSpace=wrap;html=1;aspect=fixed;fillColor=none;" parent="1" vertex="1">
          <mxGeometry x="-1650" y="139.86" width="280" height="280" as="geometry" />
        </mxCell>
        <mxCell id="Pw_K3rR0pV5wflo3pKvn-27" value="execute call transfer token" style="edgeStyle=orthogonalEdgeStyle;rounded=0;orthogonalLoop=1;jettySize=auto;html=1;entryX=1;entryY=0.5;entryDx=0;entryDy=0;" parent="1" source="Pw_K3rR0pV5wflo3pKvn-25" target="op_VEtC7BkcbnqvF3gc2-4" edge="1">
          <mxGeometry relative="1" as="geometry">
            <Array as="points">
              <mxPoint x="-1270" y="99.86" />
            </Array>
          </mxGeometry>
        </mxCell>
        <mxCell id="Pw_K3rR0pV5wflo3pKvn-28" value="execute call transfer token&lt;br&gt;" style="edgeStyle=orthogonalEdgeStyle;rounded=0;orthogonalLoop=1;jettySize=auto;html=1;entryX=1;entryY=0.5;entryDx=0;entryDy=0;" parent="1" source="Pw_K3rR0pV5wflo3pKvn-25" target="op_VEtC7BkcbnqvF3gc2-2" edge="1">
          <mxGeometry relative="1" as="geometry">
            <Array as="points">
              <mxPoint x="-1270" y="459.86" />
            </Array>
          </mxGeometry>
        </mxCell>
        <mxCell id="Pw_K3rR0pV5wflo3pKvn-25" value="StaticMarket" style="rounded=1;whiteSpace=wrap;html=1;fillColor=none;" parent="1" vertex="1">
          <mxGeometry x="-1330" y="249.86" width="120" height="60" as="geometry" />
        </mxCell>
        <mxCell id="Pw_K3rR0pV5wflo3pKvn-32" value="atomicMatch" style="edgeStyle=orthogonalEdgeStyle;rounded=0;orthogonalLoop=1;jettySize=auto;html=1;entryX=0;entryY=0.5;entryDx=0;entryDy=0;" parent="1" source="Pw_K3rR0pV5wflo3pKvn-29" target="Pw_K3rR0pV5wflo3pKvn-9" edge="1">
          <mxGeometry relative="1" as="geometry" />
        </mxCell>
        <mxCell id="Pw_K3rR0pV5wflo3pKvn-29" value="Off-chain" style="shape=hexagon;perimeter=hexagonPerimeter2;whiteSpace=wrap;html=1;fixedSize=1;fillColor=none;" parent="1" vertex="1">
          <mxGeometry x="-2400" y="239.86" width="120" height="80" as="geometry" />
        </mxCell>
        <mxCell id="Pw_K3rR0pV5wflo3pKvn-31" value="sign signature of order which executes" style="edgeStyle=orthogonalEdgeStyle;rounded=0;orthogonalLoop=1;jettySize=auto;html=1;entryX=0.5;entryY=0;entryDx=0;entryDy=0;exitX=0.5;exitY=0;exitDx=0;exitDy=0;" parent="1" source="op_VEtC7BkcbnqvF3gc2-4" target="Pw_K3rR0pV5wflo3pKvn-29" edge="1">
          <mxGeometry relative="1" as="geometry">
            <mxPoint x="-1400" y="509.86" as="sourcePoint" />
            <mxPoint x="-2040" y="479.86" as="targetPoint" />
            <Array as="points">
              <mxPoint x="-1410" y="49.86" />
              <mxPoint x="-2340" y="49.86" />
            </Array>
          </mxGeometry>
        </mxCell>
      </root>
    </mxGraphModel>
  </diagram>
</mxfile>
